<?xml version="1.0" encoding="utf-8"?>
<!-- Generator: Adobe Illustrator 23.0.1, SVG Export Plug-In . SVG Version: 6.00 Build 0)  -->
<svg version="1.1" id="Layer_1" xmlns="http://www.w3.org/2000/svg" xmlns:xlink="http://www.w3.org/1999/xlink" x="0px" y="0px"
	 viewBox="0 0 472 348" style="enable-background:new 0 0 472 348;" xml:space="preserve">
<style type="text/css">
	.st0{fill:url(#SVGID_1_);}
	.st1{fill:url(#SVGID_2_);}
	.st2{fill:url(#SVGID_3_);}
	.st3{fill:url(#SVGID_4_);}
	.st4{fill:url(#SVGID_5_);}
	.st5{fill:url(#SVGID_6_);}
	.st6{fill:url(#SVGID_7_);}
</style>
<g>
	<linearGradient id="SVGID_1_" gradientUnits="userSpaceOnUse" x1="122.5465" y1="54.0876" x2="265.5449" y2="54.0876">
		<stop  offset="0" style="stop-color:#387ED1"/>
		<stop  offset="1" style="stop-color:#6D48E5"/>
	</linearGradient>
	<path class="st0" d="M183.3,100.58v-48.9c0-12.04-6.3-22.97-18.71-22.97c-12.23,0-19.45,10.93-19.45,22.97v48.9h-22.6V9.08h20.93
		l1.67,11.11c4.82-9.26,15.37-12.6,24.08-12.6c10.93,0,21.85,4.44,27.04,17.04c8.15-12.97,18.71-16.67,30.56-16.67
		c25.93,0,38.71,15.93,38.71,43.34v49.27h-22.6V51.31c0-12.04-5-22.23-17.23-22.23c-12.23,0-19.82,10.56-19.82,22.6v48.9H183.3z"/>
	<linearGradient id="SVGID_2_" gradientUnits="userSpaceOnUse" x1="279.112" y1="55.6634" x2="369.5042" y2="55.6634">
		<stop  offset="0" style="stop-color:#387ED1"/>
		<stop  offset="1" style="stop-color:#6D48E5"/>
	</linearGradient>
	<path class="st1" d="M301.71,9.26v47.79c0,13.89,7.6,24.45,22.04,24.45c13.89,0,23.34-11.67,23.34-25.56V9.26h22.41v91.5h-20.19
		l-1.48-12.41c-9.45,9.26-18.15,13.71-30.93,13.71c-21.86,0-37.79-16.49-37.79-44.83V9.26H301.71z"/>
	<g>
		<linearGradient id="SVGID_3_" gradientUnits="userSpaceOnUse" x1="202.9652" y1="149.7688" x2="236.3262" y2="149.7688">
			<stop  offset="0.0294" style="stop-color:#387ED1"/>
			<stop  offset="1" style="stop-color:#6D48E5"/>
		</linearGradient>
		<path class="st2" d="M235.79,167.36c-1.63,5.59-6.67,10.01-12.96,11.25c-1.16,0.23-2.33,0.31-3.49,0.31
			c-2.33,0-4.66-0.39-6.83-1.24c-3.64-1.48-6.83-3.88-9.54-7.37l7.14-5.59c1.63,2.17,3.57,3.73,5.66,4.5
			c1.71,0.7,3.57,0.85,5.28,0.47c2.95-0.54,5.35-2.48,6.05-4.81c0.78-2.64-1.01-4.96-2.64-6.52c-2.56-2.41-6.75-6.52-7.06-6.83
			l-7.06-6.67c-2.17-2.09-3.65-4.42-4.42-6.91c-0.78-2.41-0.85-4.97-0.16-7.3c0.7-2.48,2.17-4.66,4.27-6.44
			c1.94-1.63,4.35-2.79,6.91-3.26c2.79-0.62,5.74-0.39,8.53,0.62c2.95,1.16,5.59,3.1,7.84,5.82l-7.06,5.66
			c-2.95-3.57-5.97-3.57-7.6-3.26c-2.02,0.39-3.73,1.71-4.19,3.34c-0.31,1.08-0.23,2.87,2.18,5.2l9.62,9.23
			c1.4,1.4,3.1,3.03,4.35,4.19c2.48,2.25,4.19,4.81,5.04,7.53C236.49,161.93,236.56,164.72,235.79,167.36z"/>
		<linearGradient id="SVGID_4_" gradientUnits="userSpaceOnUse" x1="242.8532" y1="150.1341" x2="300.4327" y2="150.1341">
			<stop  offset="0" style="stop-color:#387ED1"/>
			<stop  offset="1" style="stop-color:#6D48E5"/>
		</linearGradient>
		<path class="st3" d="M260.47,176.67c-3.49-1.47-6.52-3.57-9.16-6.21c-2.64-2.64-4.73-5.67-6.21-9.16
			c-1.48-3.49-2.25-7.3-2.25-11.17c0-3.88,0.78-7.68,2.25-11.25c1.47-3.41,3.57-6.44,6.21-9.16c2.64-2.64,5.67-4.66,9.16-6.13
			c3.49-1.47,7.29-2.25,11.17-2.25c3.88,0,7.68,0.78,11.25,2.25c3.41,1.48,6.44,3.49,9.16,6.13c2.64,2.72,4.66,5.74,6.13,9.16
			c1.48,3.57,2.25,7.37,2.25,11.25c0,3.88-0.78,7.68-2.25,11.17c-1.47,3.49-3.49,6.52-6.13,9.16c-2.72,2.64-5.74,4.73-9.16,6.21
			c-3.57,1.47-7.37,2.25-11.25,2.25C267.76,178.92,263.96,178.15,260.47,176.67z M257.67,136.17c-3.72,3.73-5.82,8.69-5.82,13.97
			c0,5.28,2.1,10.24,5.82,13.97c3.73,3.72,8.69,5.82,13.97,5.82c5.28,0,10.24-2.1,13.97-5.82c3.73-3.73,5.82-8.69,5.82-13.97
			c0-5.28-2.1-10.24-5.82-13.97c-3.72-3.72-8.69-5.82-13.97-5.82C266.36,130.35,261.4,132.44,257.67,136.17z"/>
		<linearGradient id="SVGID_5_" gradientUnits="userSpaceOnUse" x1="310.6009" y1="150.1341" x2="345.2089" y2="150.1341">
			<stop  offset="0" style="stop-color:#387ED1"/>
			<stop  offset="1" style="stop-color:#6D48E5"/>
		</linearGradient>
		<path class="st4" d="M319.6,144.78h19v8.15h-19v25.99h-9v-57.58h8.92h25.69v8.07H319.6V144.78z"/>
		<linearGradient id="SVGID_6_" gradientUnits="userSpaceOnUse" x1="348.2365" y1="150.1341" x2="388.9765" y2="150.1341">
			<stop  offset="0" style="stop-color:#387ED1"/>
			<stop  offset="1" style="stop-color:#6D48E5"/>
		</linearGradient>
		<path class="st5" d="M388.98,129.41h-15.83v49.51h-9.08v-49.51h-15.83v-8.07h40.74V129.41z"/>
	</g>
	<linearGradient id="SVGID_7_" gradientUnits="userSpaceOnUse" x1="-0.0995" y1="173.8982" x2="471.7949" y2="173.8982">
		<stop  offset="0" style="stop-color:#387ED1"/>
		<stop  offset="1" style="stop-color:#6D48E5"/>
	</linearGradient>
	<path class="st6" d="M471.24,52.6c0-10-2.59-19.08-9.63-27.04l10.19-12.96L455.13,0l-9.08,11.48c-6.3-4.26-13.71-5.19-20.93-5.19
		c-25.56,0-46.31,17.78-46.31,46.31c0,28.53,17.78,45.94,46.31,45.94c10.61,0,21.72,5.07,23.02,16.13
		c0.08,0.71,0.13,166.03,0.13,166.79c0,22.24-20.23,43.66-56.12,43.66c-0.27,0-45.09,0.01-95.45,0.02
		c-50.36-0.01-95.17-0.02-95.45-0.02c-35.89,0-56.12-21.42-56.12-43.66c0-0.76,0.04-161.23,0.13-161.94h-22.7c0,0.05,0,1.48,0,4.01
		c-11.9-5.82-25.13-8.61-39.04-8.61c-58.6,0-83.39,40.35-83.62,81.37c-0.22,41.25,26.6,83.17,83.62,83.17
		c13.73,0,26.99-3.35,39.02-9.97c0,7.4,0,11.89,0,11.98c0,37.91,27.53,66.31,79.42,66.31c0.21,0,17.17,0.01,41.89,0.01l0,0.02
		c17.23,0,35.39-0.01,52.86-0.01c17.47,0,35.63,0.01,52.86,0.01l0-0.02c24.71,0,41.67-0.01,41.89-0.01
		c51.89,0,79.42-28.41,79.42-66.31c0-0.56-0.01-166.24-0.02-166.79c-0.35-11.04-4.4-20.75-18.87-27.98
		C466.98,79.83,471.24,63.91,471.24,52.6z M121.61,236.17c-10.37,10.14-24.34,14.88-38.09,14.88c-38.09,0-54.55-28.4-54.32-54.77
		c0.22-26.15,15.32-53.42,54.32-53.42c13.47,0,28.67,5.43,39.03,15.41c0,23.71-0.01,54.13-0.01,78.81L121.61,236.17z M425.12,77.98
		c-13.15,0-23.9-9.45-23.9-25.38c0-15.93,10.74-25.75,23.9-25.75c12.96,0,23.71,10,23.71,25.75
		C448.83,68.35,438.08,77.98,425.12,77.98z"/>
</g>
</svg>
